<svg id="Layer_1" data-name="Layer 1" xmlns="http://www.w3.org/2000/svg" width="30" viewBox="0 0 118.86 122.88"><title>receipt-us-dollar</title><path d="M113.28,113.76l-2.17-2.5-10.56,10.56a3.18,3.18,0,0,1-4.46,0L85.33,111.38,74.79,121.5a3.19,3.19,0,0,1-4.43.13L59.17,111.3,48.84,122a3.2,3.2,0,0,1-4.51,0L33.69,111.3l-11,10.44a3.17,3.17,0,0,1-4.44-.06L7.85,111.14l-2.1,2.43A3.18,3.18,0,0,1,0,111.68V3.18A3.19,3.19,0,0,1,3.18,0H115.67a3.19,3.19,0,0,1,3.19,3.18v108.5a3.22,3.22,0,0,1-1.11,2.4,3.17,3.17,0,0,1-4.47-.32ZM26.33,79.5c-.56,0-.89-.1-1.3-.16L22.77,79l-1.4-.23q-.68-.12-1.35-.27c-.48-.11-.92-.21-1.31-.32l-.53-.14V69.3l2.47.2,1.82.11,1.9.09,1.94.06,1.87,0h1.74c.53,0,1,0,1.4,0a9.85,9.85,0,0,0,1.1-.17,3.65,3.65,0,0,0,.77-.26,1.85,1.85,0,0,0,.47-.32,1.05,1.05,0,0,0,.23-.36,1.72,1.72,0,0,0,.09-.58v-.58a1.12,1.12,0,0,0-.45-1,2.11,2.11,0,0,0-.6-.3,2.45,2.45,0,0,0-.74-.1H29.64a18.35,18.35,0,0,1-5.11-.64,10.11,10.11,0,0,1-3.83-2,8.11,8.11,0,0,1-2.38-3.59,15.76,15.76,0,0,1-.77-5.19V53.08a13.18,13.18,0,0,1,.85-4.89A8.83,8.83,0,0,1,21,44.61a12.19,12.19,0,0,1,2.56-1.69,10.37,10.37,0,0,1,2.78-.83V38.21h8.06v3.72a34.68,34.68,0,0,1,3.68.53l.67.12,1.69.32c.53.11,1,.22,1.51.34l.55.13v8.76l-.78-.07-2.33-.17-2.62-.14-2.62-.09c-.75,0-1.55,0-2.38,0-.45,0-.85,0-1.23,0a10.24,10.24,0,0,0-1.06.13,3.23,3.23,0,0,0-.76.23,1.8,1.8,0,0,0-.49.35,1.05,1.05,0,0,0-.27.43,2.28,2.28,0,0,0-.1.74v.49a2,2,0,0,0,.13.78,1.28,1.28,0,0,0,.37.49,1.87,1.87,0,0,0,.71.33,4.63,4.63,0,0,0,1.2.13h3.18a15.08,15.08,0,0,1,3.25.34,9.85,9.85,0,0,1,2.71,1,9,9,0,0,1,3.66,3.76A11,11,0,0,1,44,63.43a12.72,12.72,0,0,1,.3,2.8v1.59A18.91,18.91,0,0,1,43.85,72a9.38,9.38,0,0,1-1.29,3.18,8.24,8.24,0,0,1-2.11,2.21,9,9,0,0,1-2.82,1.34l-.27.08a16,16,0,0,1-3,.64v4.2H26.33V79.5ZM84.9,74.38a3,3,0,1,1,0,6H56.85a3,3,0,0,1,0-6ZM100.56,58a3,3,0,0,1,0,6H56.85a3,3,0,0,1,0-6Zm.1-16.26a3,3,0,1,1,0,6H56.85a3,3,0,0,1,0-6ZM96,15.68a5.29,5.29,0,1,1-3.74,1.55A5.24,5.24,0,0,1,96,15.68Zm-24.37,0a5.27,5.27,0,1,1-3.74,1.55,5.27,5.27,0,0,1,3.74-1.55Zm-24.36,0a5.29,5.29,0,1,1-3.74,1.55,5.24,5.24,0,0,1,3.74-1.55Zm-24.37,0a5.27,5.27,0,1,1-3.74,1.55,5.27,5.27,0,0,1,3.74-1.55Zm89.61,88V6.37H6.37V103.6a3.18,3.18,0,0,1,3.41.48L20.6,115l11-10.44a3.18,3.18,0,0,1,4.44.06l10.56,10.55,10.21-10.52a3.19,3.19,0,0,1,4.43-.12l11.27,10.4,10.67-10.25a3.18,3.18,0,0,1,4.44,0l10.68,10.39L109,104.36a3.19,3.19,0,0,1,3.48-.69Z"/></svg>