<?xml version="1.0" encoding="utf-8"?><svg version="1.1" id="Layer_1" xmlns="http://www.w3.org/2000/svg" xmlns:xlink="http://www.w3.org/1999/xlink" height="40px" x="0px" y="0px" viewBox="0 0 40.4 122.88" style="enable-background:new 0 0 40.4 122.88" xml:space="preserve"><style type="text/css">.st0{fill:#4C182C;} .st1{fill-rule:evenodd;clip-rule:evenodd;fill:#F9414F;} .st2{fill-rule:evenodd;clip-rule:evenodd;fill:#EADC57;}</style><g><path class="st0" d="M13.61,0h13.17c1.2,0,2.3,0.49,3.09,1.29l0.01,0.01c0.79,0.8,1.28,1.89,1.28,3.09v5.24 c0,1.21-0.49,2.31-1.29,3.1c-0.05,0.05-0.1,0.09-0.15,0.14c-0.65,0.59-1.47,0.99-2.37,1.11c0.35,10.13,3.22,14.79,7.3,24.76 c11.64,26.18-1.54,54.13,3.88,69.81c2.63,7.6,4.32,15.3-8.55,14.23H10.16l0,0c-11.05,0.93-11.52-6.22-8.71-13.79 c5.83-15.64-7.7-43.82,4.04-70.24c4.1-10,6.78-14.66,7.08-24.85c-0.79-0.19-1.5-0.61-2.07-1.17l0,0c-0.79-0.79-1.29-1.89-1.29-3.1 V4.39c0-1.2,0.49-2.3,1.29-3.09l0.01-0.01C11.32,0.49,12.42,0,13.61,0L13.61,0z"/><path class="st1" d="M13.61,2h13.17c1.32,0,2.39,1.08,2.39,2.39v5.24c0,1.32-1.08,2.39-2.39,2.39H13.61 c-1.32,0-2.39-1.08-2.39-2.39V4.39C11.22,3.08,12.3,2,13.61,2L13.61,2z"/><path class="st1" d="M3.54,73.8c-0.7-7.77-0.89-16.1,1.12-24.65h31.1c2.01,8.55,1.82,16.89,1.12,24.65H3.54L3.54,73.8L3.54,73.8z"/><path class="st2" d="M20.09,55.13c3.5,0,6.33,2.84,6.33,6.34c0,3.5-2.84,6.34-6.33,6.34c-3.5,0-6.34-2.84-6.34-6.34 C13.75,57.96,16.59,55.13,20.09,55.13L20.09,55.13L20.09,55.13z"/><path class="st0" d="M20.09,54.01c2.06,0,3.92,0.84,5.27,2.19c1.35,1.35,2.18,3.22,2.18,5.27c0,2.06-0.84,3.92-2.18,5.27 c-1.35,1.35-3.22,2.19-5.27,2.19c-2.06,0-3.92-0.84-5.28-2.19l0,0c-1.35-1.35-2.19-3.22-2.19-5.28c0-2.06,0.83-3.93,2.18-5.28 C16.16,54.84,18.03,54.01,20.09,54.01L20.09,54.01z M23.77,57.78c-0.94-0.94-2.24-1.52-3.68-1.52c-1.44,0-2.74,0.58-3.69,1.53 c-0.94,0.94-1.52,2.24-1.52,3.69c0,1.44,0.58,2.74,1.53,3.69v0c0.94,0.94,2.24,1.52,3.69,1.52c1.44,0,2.74-0.58,3.68-1.52 c0.94-0.94,1.52-2.25,1.52-3.69C25.29,60.03,24.71,58.72,23.77,57.78L23.77,57.78z"/></g></svg>